<svg xmlns="http://www.w3.org/2000/svg"
     viewBox="0 0 512 512"
     fill="none"
     style="color:#0f62fe">

  <!-- Main envelope shadow -->
  <path
    d="M78 386.5C78 402.24 90.76 415 106.5 415H405.5C421.24 415 434 402.24 434 386.5V186.8C434 171.06 421.24 158.3 405.5 158.3H106.5C90.76 158.3 78 171.06 78 186.8V386.5Z"
    fill="currentColor"
    opacity="0.12"/>

  <!-- Back flap -->
  <path
    d="M91.85 173.55C97.18 168.22 104.41 165.22 111.95 165.22H400.05C407.59 165.22 414.82 168.22 420.15 173.55L274.42 295.34C263.73 304.28 248.27 304.28 237.58 295.34L91.85 173.55Z"
    fill="currentColor"
    opacity="0.88"/>

  <!-- Envelope base -->
  <path
    d="M84 187.8C84 171.88 96.91 158.97 112.83 158.97H399.17C415.09 158.97 428 171.88 428 187.8V376.2C428 392.12 415.09 405.03 399.17 405.03H112.83C96.91 405.03 84 392.12 84 376.2V187.8Z"
    fill="currentColor"/>

  <!-- Inner cut / paper light area -->
  <path
    d="M108.6 190.42C111.85 185.71 117.23 182.91 122.95 182.91H389.05C394.77 182.91 400.15 185.71 403.4 190.42L276.06 296.33C264.43 306.01 247.57 306.01 235.94 296.33L108.6 190.42Z"
    fill="white"
    opacity="0.22"/>

  <!-- Left fold -->
  <path
    d="M84 205.62L224.78 313.68L92.79 395.66C87.31 390.43 84 383.05 84 376.2V205.62Z"
    fill="white"
    opacity="0.18"/>

  <!-- Right fold -->
  <path
    d="M428 205.62L287.22 313.68L419.21 395.66C424.69 390.43 428 383.05 428 376.2V205.62Z"
    fill="white"
    opacity="0.18"/>

  <!-- Front flap -->
  <path
    d="M102.11 397.39L226.31 287.26C243.2 272.29 268.8 272.29 285.69 287.26L409.89 397.39C406.34 399.84 402.03 401.25 397.39 401.25H114.61C109.97 401.25 105.66 399.84 102.11 397.39Z"
    fill="currentColor"
    opacity="0.72"/>

  <!-- Front flap highlight -->
  <path
    d="M112.5 393.5L229.96 294.36C245.01 281.66 266.99 281.66 282.04 294.36L399.5 393.5"
    stroke="white"
    stroke-width="10"
    stroke-linecap="round"
    stroke-linejoin="round"
    opacity="0.26"/>

  <!-- Top envelope line -->
  <path
    d="M105.5 185.5L235.94 296.33C247.57 306.01 264.43 306.01 276.06 296.33L406.5 185.5"
    stroke="white"
    stroke-width="12"
    stroke-linecap="round"
    stroke-linejoin="round"
    opacity="0.34"/>

  <!-- Premium shine -->
  <path
    d="M130 203C130 195.73 135.89 189.84 143.16 189.84H241.84C249.11 189.84 255 195.73 255 203C255 210.27 249.11 216.16 241.84 216.16H143.16C135.89 216.16 130 210.27 130 203Z"
    fill="white"
    opacity="0.22"/>

  <!-- Notification badge shadow -->
  <path
    d="M389 108C337.09 108 295 150.09 295 202C295 253.91 337.09 296 389 296C440.91 296 483 253.91 483 202C483 150.09 440.91 108 389 108Z"
    fill="currentColor"
    opacity="0.14"/>

  <!-- Notification badge -->
  <path
    d="M389 91C334.88 91 291 134.88 291 189C291 243.12 334.88 287 389 287C443.12 287 487 243.12 487 189C487 134.88 443.12 91 389 91Z"
    fill="currentColor"/>

  <!-- Badge inner shine -->
  <path
    d="M389 111C345.93 111 311 145.93 311 189C311 232.07 345.93 267 389 267C432.07 267 467 232.07 467 189C467 145.93 432.07 111 389 111Z"
    fill="white"
    opacity="0.14"/>

  <!-- Badge rim -->
  <path
    d="M389 91C334.88 91 291 134.88 291 189C291 243.12 334.88 287 389 287C443.12 287 487 243.12 487 189C487 134.88 443.12 91 389 91Z"
    stroke="white"
    stroke-width="10"
    opacity="0.45"/>

  <!-- Number 1 -->
  <path
    d="M378.2 228V166.85L361.85 176.55C356.3 179.85 349.12 178.02 345.82 172.47C342.52 166.91 344.35 159.74 349.9 156.44L378.64 139.37C383.11 136.72 388.23 135.32 393.43 135.32C400.26 135.32 405.8 140.86 405.8 147.69V228C405.8 235.62 399.62 241.8 392 241.8C384.38 241.8 378.2 235.62 378.2 228Z"
    fill="white"/>
</svg>
