<?xml version="1.0" standalone="no"?>
<!DOCTYPE svg PUBLIC "-//W3C//DTD SVG 20010904//EN"
 "http://www.w3.org/TR/2001/REC-SVG-20010904/DTD/svg10.dtd">
<svg version="1.0" xmlns="http://www.w3.org/2000/svg"
 width="1232.000000pt" height="1280.000000pt" viewBox="0 0 1232.000000 1280.000000"
 preserveAspectRatio="xMidYMid meet">
<metadata>
Created by potrace 1.15, written by Peter Selinger 2001-2017
</metadata>
<g transform="translate(0.000000,1280.000000) scale(0.100000,-0.100000)"
fill="#000000" stroke="none">
<path d="M6245 12790 c-38 -7 -36 -7 20 -8 42 -1 56 1 45 8 -8 5 -17 9 -20 8
-3 0 -23 -4 -45 -8z"/>
<path d="M6345 12766 c-29 -14 -29 -14 -5 -15 30 0 112 16 90 18 -8 1 -24 3
-35 6 -11 3 -33 -2 -50 -9z"/>
<path d="M6390 12725 c-8 -10 -30 -15 -62 -15 -37 0 -47 -3 -42 -12 6 -10 4
-10 -7 -2 -20 15 -380 -26 -403 -45 -12 -10 -49 -16 -106 -19 -86 -4 -89 -5
-100 -33 -12 -29 -23 -31 -79 -13 -25 8 -122 -20 -116 -34 3 -10 0 -10 -16 -2
-20 11 -20 11 3 31 25 22 -26 -4 -135 -69 -32 -19 -60 -32 -62 -30 -3 3 30 29
73 59 l77 54 -50 3 c-35 2 -76 -6 -140 -28 -75 -25 -98 -38 -142 -82 l-52 -51
-27 18 c-26 17 -32 17 -142 0 -90 -14 -127 -16 -180 -8 -63 9 -75 8 -219 -32
-84 -23 -155 -39 -158 -37 -12 12 -3 21 33 33 20 7 32 14 25 16 -6 2 -56 -19
-112 -46 -71 -36 -117 -53 -158 -57 -32 -4 -78 -17 -102 -30 -33 -18 -47 -21
-57 -13 -10 8 -26 4 -64 -20 -27 -17 -50 -27 -50 -22 0 14 33 38 100 71 36 18
77 41 92 51 33 24 37 24 30 -3 -4 -16 -2 -20 9 -16 8 3 44 14 80 23 55 15 71
24 116 73 33 35 70 63 105 78 73 32 46 30 -70 -5 -181 -54 -591 -228 -620
-264 -8 -9 -20 -13 -27 -10 -8 2 -58 -19 -112 -47 -139 -75 -347 -192 -353
-200 -9 -13 -174 -130 -182 -130 -4 0 -8 5 -8 11 0 6 -12 1 -27 -11 -56 -44
-200 -143 -263 -181 -141 -83 -483 -366 -712 -588 -147 -142 -378 -396 -405
-444 -7 -12 -12 -18 -13 -13 0 5 -9 1 -20 -9 -10 -9 -18 -20 -17 -24 1 -3 -12
-26 -29 -51 -17 -25 -39 -61 -49 -80 -10 -19 -26 -41 -37 -48 -18 -13 -68 -85
-68 -98 0 -4 13 11 29 33 16 23 38 47 49 54 10 8 27 30 37 49 22 44 122 168
146 180 44 24 51 10 16 -32 -19 -24 -49 -65 -67 -93 -18 -27 -43 -59 -56 -70
-12 -11 -27 -37 -34 -58 -6 -21 -23 -51 -37 -67 -14 -17 -23 -39 -21 -52 2
-19 10 -24 45 -26 27 -2 51 3 68 14 19 12 29 14 37 6 8 -8 17 -8 29 -1 15 8
14 2 -7 -28 -30 -45 -39 -54 -31 -30 8 22 7 22 -63 -13 -73 -37 -80 -37 -80
-4 0 20 -73 144 -85 144 -2 0 -44 -60 -94 -132 -51 -73 -128 -182 -172 -243
-92 -125 -139 -202 -139 -227 0 -9 -55 -119 -121 -245 -67 -125 -149 -280
-182 -343 -33 -63 -66 -122 -73 -130 -36 -42 -239 -613 -294 -825 -17 -66 -39
-149 -50 -185 -50 -175 -114 -529 -149 -825 -40 -338 -49 -1025 -17 -1262 9
-67 16 -125 14 -130 -3 -16 14 -149 28 -208 7 -33 27 -150 43 -260 17 -112 46
-257 66 -330 67 -238 118 -430 119 -445 0 -8 3 -17 6 -20 6 -5 36 -91 140
-396 92 -270 301 -691 509 -1024 90 -146 177 -279 192 -297 l27 -31 4 76 c4
75 2 84 -74 312 -125 372 -129 382 -159 442 -28 56 -28 58 -18 135 l11 78
-104 234 -105 234 58 231 58 231 -59 265 c-33 146 -91 374 -130 507 -90 310
-90 321 -19 568 51 177 51 177 238 524 140 260 222 428 330 675 l143 329 -7
84 c-6 74 -9 83 -24 78 -10 -3 -95 -41 -189 -85 -95 -43 -174 -74 -177 -69 -4
5 7 28 23 51 23 35 27 49 21 76 -7 36 -12 31 68 62 l26 11 -27 28 -28 29 38
12 c36 12 36 13 15 24 -20 11 -14 16 76 58 81 38 126 69 260 181 102 84 230
178 345 252 101 65 193 127 205 139 12 11 71 92 132 180 l110 159 -36 56 c-20
31 -54 84 -75 118 l-39 61 16 64 c9 34 18 68 20 75 3 9 17 7 52 -7 72 -28 275
-60 388 -60 55 0 144 -3 197 -7 l97 -6 40 -67 c40 -66 41 -67 125 -100 48 -18
86 -34 86 -36 0 -1 -32 -20 -70 -40 -39 -21 -70 -42 -70 -46 0 -6 82 -130 101
-152 4 -4 37 2 72 15 53 19 73 32 108 75 24 29 45 51 48 48 2 -2 -1 -41 -7
-86 -33 -234 -62 -464 -62 -497 0 -20 18 -99 40 -176 22 -77 77 -270 121 -430
45 -159 83 -292 84 -294 2 -1 60 16 129 39 l124 41 35 147 c20 81 45 197 56
257 52 283 60 319 73 326 7 4 156 107 331 228 l318 220 86 123 c47 68 88 125
90 127 2 3 28 -7 57 -21 l54 -27 68 20 c38 11 75 22 82 24 8 3 -7 31 -44 81
-31 41 -54 77 -52 79 2 2 48 -20 103 -49 l99 -53 29 -94 c28 -93 30 -95 118
-184 l89 -90 0 -183 0 -182 74 0 74 0 67 79 66 79 45 -48 44 -48 45 -338 45
-339 -27 -118 -27 -118 101 -102 101 -102 62 -200 63 -201 124 -87 c111 -78
128 -87 157 -82 59 12 59 8 9 206 l-46 184 -76 80 c-55 59 -98 93 -161 128
-47 26 -90 53 -96 60 -6 7 -40 89 -75 182 l-64 170 64 173 64 172 31 -46 c26
-39 48 -54 146 -104 67 -33 150 -85 196 -123 77 -62 82 -65 100 -49 18 16 18
16 1 -4 -16 -19 -16 -26 4 -114 11 -52 22 -96 23 -98 2 -1 25 31 52 73 27 41
53 75 58 75 5 0 24 -9 43 -21 22 -14 38 -18 46 -12 18 14 271 215 279 222 4 3
-2 92 -13 196 l-20 190 -133 135 c-133 134 -133 135 -173 236 l-41 102 114
101 113 102 102 -3 103 -3 -3 -65 c-3 -74 6 -73 29 3 l16 52 69 9 c39 4 113
24 167 43 l96 35 -9 31 c-17 59 -10 62 36 17 l45 -45 143 72 143 71 81 128
c49 79 104 151 140 185 49 48 68 76 117 183 33 69 57 128 54 131 -2 3 -41 10
-86 17 -45 6 -82 14 -82 17 0 4 30 22 67 40 l66 32 -89 53 c-50 29 -98 55
-108 59 -11 4 -17 9 -15 12 2 2 45 -7 94 -21 50 -13 94 -24 100 -24 5 0 -26
37 -70 83 -44 45 -111 114 -149 153 l-68 71 126 104 126 104 -161 3 -162 3
-51 36 c-28 20 -53 38 -55 40 -13 9 143 149 209 188 l75 45 12 -28 c16 -36 16
-58 -2 -114 -8 -27 -12 -48 -9 -48 2 0 55 27 117 59 l112 59 70 -64 c55 -52
67 -67 55 -74 -59 -34 -57 -37 29 -48 45 -5 85 -12 87 -15 3 -3 21 -74 40
-158 19 -84 36 -154 38 -156 3 -3 203 92 214 102 8 7 -178 288 -220 331 l-50
52 84 108 c47 60 95 128 109 151 l23 41 116 7 116 7 57 193 58 194 -86 171
-86 171 -74 36 -75 35 -44 -26 c-53 -31 -56 -31 -56 -6 0 24 -17 33 -106 54
l-72 18 75 132 74 133 136 13 c130 13 139 12 218 -8 126 -33 206 -27 125 9
-40 18 -55 40 -67 102 -5 26 -4 27 33 27 27 0 54 -10 84 -30 54 -35 66 -22 21
24 -17 18 -31 34 -31 37 0 3 15 3 34 1 33 -4 35 -7 108 -165 l74 -162 195
-173 c107 -95 206 -181 220 -192 l25 -19 -32 129 c-42 166 -68 203 -192 273
-82 46 -216 162 -207 178 3 3 25 12 50 18 38 9 50 9 76 -5 17 -8 33 -14 35
-11 3 2 -17 28 -43 58 -84 96 -81 92 -50 80 15 -6 27 -9 27 -6 0 6 -146 75
-205 96 -27 10 -41 18 -30 19 13 1 1 11 -35 30 -74 39 -58 37 47 -5 48 -19 88
-34 89 -32 7 7 -164 86 -196 91 -19 3 -124 35 -233 71 -110 36 -213 65 -230
64 l-32 -1 37 -17 c21 -10 40 -20 43 -22 4 -5 -62 5 -180 26 l-30 5 25 -21
c29 -24 30 -25 -103 27 -74 28 -102 34 -167 34 -51 0 -117 9 -187 26 -120 30
-120 30 -148 19 -12 -5 -17 -4 -12 1 8 8 -182 36 -192 28 -2 -2 10 -11 28 -21
17 -10 31 -20 31 -23 0 -3 -54 -11 -120 -18 -119 -12 -120 -12 -302 23 -101
20 -214 42 -253 50 -38 8 -105 15 -147 15 -65 0 -76 -2 -72 -15 5 -12 -1 -12
-36 4 -38 17 -47 17 -117 4 -41 -8 -77 -13 -79 -11 -2 2 43 19 99 37 l102 34
-42 18 c-39 17 -164 39 -217 39 -13 0 -29 -7 -36 -15z m-1071 -261 c7 -7 -1
-10 -148 -66 -128 -49 -149 -54 -178 -45 -18 6 -30 13 -27 16 3 3 46 13 95 23
70 13 100 24 137 51 38 28 53 33 82 29 19 -3 37 -6 39 -8z m51 -30 c0 -28 -15
-25 -23 6 -3 13 0 20 9 20 8 0 14 -10 14 -26z m-1620 -154 c-8 -5 -19 -10 -25
-10 -5 0 -3 5 5 10 8 5 20 10 25 10 6 0 3 -5 -5 -10z m-411 -244 c-17 -16
-118 -50 -126 -43 -9 10 126 70 136 61 3 -3 -2 -11 -10 -18z m-937 -886 c-24
-11 -46 -29 -51 -43 -5 -14 -33 -36 -69 -55 -65 -35 -67 -38 -77 -124 l-6 -57
50 -26 c36 -18 56 -36 71 -64 18 -37 19 -42 4 -78 -21 -49 -17 -47 -52 -29
-29 15 -34 14 -86 -9 l-56 -25 0 39 c0 36 -3 40 -32 46 -18 4 -37 10 -41 12
-5 3 14 28 41 57 43 44 59 76 53 107 -1 3 -43 -2 -95 -11 l-94 -16 26 32 c73
87 179 203 197 214 18 12 18 11 7 -2 -7 -9 -10 -22 -6 -31 4 -11 -4 -21 -26
-32 -27 -14 -70 -67 -70 -87 0 -4 26 4 57 16 49 21 59 29 76 69 18 41 26 48
101 81 45 19 90 35 101 35 12 0 4 -8 -23 -19z m520 -14 c16 -32 15 -35 -5 -65
-27 -40 -143 -101 -192 -101 -19 0 -35 -3 -35 -7 -1 -5 -12 -57 -25 -118 l-25
-110 31 -28 c17 -16 29 -30 27 -31 -1 -2 -33 -13 -69 -25 l-66 -22 -54 -137
-55 -137 -89 -26 -90 -27 -6 32 c-4 17 -9 51 -12 76 l-5 45 88 75 c92 79 100
92 100 178 0 18 21 83 46 145 l45 113 121 74 c99 61 220 124 249 129 3 1 13
-14 21 -33z m-1362 -510 c0 -2 -8 -10 -17 -17 -16 -13 -17 -12 -4 4 13 16 21
21 21 13z m297 -966 c16 0 23 -8 28 -32 4 -18 20 -90 37 -160 l29 -127 64 -30
64 -29 -101 -99 c-55 -54 -103 -98 -106 -97 -22 3 -138 39 -145 44 -5 4 3 35
17 69 13 33 23 61 20 61 -2 0 -17 -26 -33 -57 l-30 -58 0 40 c-1 144 19 356
39 419 l22 68 36 -6 c20 -3 47 -6 59 -6z"/>
<path d="M7300 12694 c0 -15 47 -24 128 -24 91 0 67 16 -40 27 -66 6 -88 6
-88 -3z"/>
<path d="M5388 12693 c7 -3 16 -2 19 1 4 3 -2 6 -13 5 -11 0 -14 -3 -6 -6z"/>
<path d="M5240 12675 c-80 -14 -155 -33 -130 -34 8 0 71 11 140 24 69 13 112
23 95 23 -16 0 -64 -6 -105 -13z"/>
<path d="M4911 12595 c-40 -13 -75 -26 -78 -29 -3 -2 7 -12 20 -21 24 -16 28
-15 106 25 45 22 81 42 81 45 0 11 -59 2 -129 -20z"/>
<path d="M8760 11629 c0 -44 377 -561 400 -549 57 32 58 28 -34 143 -47 59
-86 110 -86 112 0 3 23 -6 51 -21 28 -14 53 -23 55 -21 5 4 -371 367 -380 367
-3 0 -6 -14 -6 -31z"/>
<path d="M9160 11036 c0 -3 14 -41 30 -86 29 -78 38 -144 23 -153 -5 -2 -3 -3
3 -1 7 1 52 -8 100 -21 49 -13 92 -21 95 -17 3 4 24 31 48 59 49 60 57 49 -64
94 -33 12 -99 46 -147 76 -49 29 -88 51 -88 49z"/>
<path d="M9210 10745 l0 -36 32 17 32 17 -23 18 c-33 27 -41 24 -41 -16z"/>
<path d="M9286 10638 c-3 -35 -8 -111 -12 -170 l-6 -108 -62 0 c-62 0 -64 -1
-177 -78 -81 -56 -135 -103 -188 -163 -43 -48 -94 -94 -119 -107 -42 -22 -43
-24 -28 -45 8 -12 41 -61 73 -109 32 -48 60 -88 63 -88 3 0 14 30 26 68 l21
67 -45 68 c-25 37 -43 69 -41 71 2 2 75 20 163 39 l158 34 38 -59 38 -59 17
76 c14 61 20 75 34 71 78 -23 148 -36 165 -32 12 3 35 14 52 25 l30 19 -26
195 -26 195 -68 76 c-37 42 -69 76 -71 76 -2 0 -6 -28 -9 -62z"/>
<path d="M9025 10040 c-11 -5 -46 -19 -79 -31 l-59 -21 47 -29 c25 -16 48 -29
50 -29 1 0 22 27 45 60 41 58 40 69 -4 50z"/>
<path d="M8027 9105 l-48 -75 37 -85 c21 -47 40 -82 43 -79 3 3 24 72 47 154
l41 148 -30 6 c-16 3 -32 6 -36 6 -3 0 -27 -34 -54 -75z"/>
<path d="M6881 8574 c-24 -41 -41 -77 -40 -78 2 -2 40 2 84 10 44 7 85 13 92
13 7 1 19 22 27 49 8 26 17 55 21 65 6 15 0 17 -67 17 l-74 0 -43 -76z"/>
<path d="M8067 8438 c-8 -29 -22 -82 -32 -118 l-17 -66 54 -134 54 -135 89
-32 c120 -42 123 -42 116 5 -5 32 -10 37 -37 40 -27 3 -34 11 -66 75 l-36 73
32 164 32 165 -26 6 c-14 4 -53 7 -87 8 l-62 1 -14 -52z"/>
<path d="M8340 7989 c0 -4 9 -14 21 -22 11 -8 44 -38 74 -66 29 -28 55 -51 57
-51 6 0 -19 120 -26 127 -8 9 -126 20 -126 12z"/>
<path d="M8110 7943 c0 -16 74 -123 80 -116 5 4 15 25 23 45 l15 37 -59 20
c-32 11 -59 17 -59 14z"/>
<path d="M8288 7696 c-2 -42 0 -75 3 -74 4 2 32 26 62 55 l57 51 -43 15 c-23
8 -50 18 -59 22 -14 6 -17 -3 -20 -69z"/>
<path d="M7902 7549 c-125 -179 -121 -179 65 -2 l83 78 -12 43 c-7 23 -15 42
-18 42 -3 0 -56 -73 -118 -161z"/>
<path d="M8391 7603 l-51 -58 42 -37 c23 -20 43 -36 45 -35 5 5 24 180 20 184
-3 2 -28 -22 -56 -54z"/>
<path d="M3767 7510 c23 -36 36 -42 41 -17 2 10 -9 22 -29 33 l-32 16 20 -32z"/>
<path d="M8665 7494 l6 -40 -93 -57 -93 -57 -17 41 -18 40 -70 -81 c-39 -46
-69 -84 -67 -86 2 -3 33 9 69 24 111 50 95 57 194 -77 49 -66 92 -120 95 -121
3 0 10 39 15 88 l9 87 31 -53 32 -54 17 56 18 56 -58 123 c-73 155 -77 162
-70 111z"/>
<path d="M3758 7379 l-37 -80 25 -82 c14 -45 29 -85 33 -89 4 -4 39 25 79 65
l71 72 -62 97 c-34 53 -64 97 -67 97 -3 0 -22 -36 -42 -80z"/>
<path d="M7677 7113 c-99 -111 -111 -120 -160 -132 -39 -10 -90 -41 -204 -124
l-153 -111 0 -73 c0 -40 -2 -73 -5 -73 -3 0 -48 18 -99 39 l-95 40 -10 -52
c-6 -29 -19 -94 -30 -145 l-19 -94 60 -131 c32 -73 64 -137 71 -143 31 -29
407 -134 478 -134 11 0 50 15 87 34 l68 34 14 99 c13 95 16 103 104 261 l91
163 58 -7 c31 -3 57 -3 57 0 0 4 -48 70 -106 147 l-106 141 27 28 c15 16 70
59 122 97 l95 68 -79 23 c-121 36 -119 34 -139 102 l-19 62 -108 -119z"/>
<path d="M5360 7065 c0 -2 157 -224 349 -493 l350 -488 157 -140 c87 -76 166
-145 176 -152 13 -9 35 -11 77 -6 l59 6 10 87 c6 47 14 113 18 146 l6 60 -86
24 c-47 13 -86 26 -86 30 0 3 -5 47 -10 96 -8 70 -18 107 -47 169 l-38 78 -67
-5 c-38 -2 -68 -2 -68 0 0 2 11 14 25 26 l24 22 -301 255 -302 254 -115 18
c-132 20 -131 20 -131 13z"/>
<path d="M8570 6600 c-19 -4 -131 -23 -247 -41 l-213 -33 -70 -216 -69 -215
23 -80 c49 -162 62 -200 69 -197 4 1 16 2 26 2 17 0 25 22 57 160 21 88 40
160 43 160 3 0 22 -42 41 -93 l35 -92 73 -3 c39 -2 72 -1 72 2 0 2 -37 68 -81
146 -45 77 -80 143 -78 144 2 2 50 27 107 55 56 28 102 53 102 54 0 2 -61 -12
-137 -30 -75 -19 -139 -30 -143 -26 -7 8 -40 154 -40 178 0 11 37 14 213 14
l212 1 28 33 c16 17 37 44 48 60 l20 27 -28 -1 c-15 -1 -44 -5 -63 -9z"/>
<path d="M8921 6564 c0 -11 3 -14 6 -6 3 7 2 16 -1 19 -3 4 -6 -2 -5 -13z"/>
<path d="M8917 6518 c-4 -14 6 -43 30 -85 38 -69 58 -81 24 -14 -12 22 -21 43
-21 46 0 3 21 5 48 5 l47 0 -55 35 c-30 19 -58 35 -61 35 -4 0 -9 -10 -12 -22z"/>
<path d="M9333 6347 c-34 -29 -64 -55 -67 -58 -3 -3 55 -20 130 -39 74 -18
137 -37 139 -41 3 -4 -36 -22 -85 -40 -50 -18 -90 -36 -90 -39 0 -3 20 -36 44
-74 l43 -68 49 63 49 64 3 -51 3 -51 187 -83 c103 -46 190 -86 194 -90 5 -3
17 -55 28 -114 16 -90 18 -111 7 -120 -8 -6 -31 -32 -51 -58 l-38 -47 29 8
c15 5 40 14 55 19 19 8 28 8 31 -1 2 -8 21 -4 62 11 32 12 59 21 60 20 2 -2
17 -34 34 -72 27 -61 33 -68 53 -62 13 3 59 6 103 6 l80 0 -47 47 -47 47 101
38 c55 21 104 38 108 38 4 0 61 -65 126 -145 l119 -145 61 0 c34 0 90 -3 125
-7 l64 -6 -85 99 c-46 54 -106 125 -133 156 l-50 57 21 83 c14 60 17 85 8 90
-6 4 -129 89 -273 190 -229 159 -281 191 -404 245 -78 35 -146 60 -153 56 -6
-4 -66 -51 -134 -106 -68 -54 -125 -97 -126 -95 -1 1 -20 50 -42 108 l-40 105
-84 58 c-46 31 -89 57 -94 57 -6 -1 -39 -24 -73 -53z"/>
<path d="M6491 6241 l-34 -28 64 -48 c35 -27 70 -53 77 -58 8 -6 4 11 -9 44
-12 30 -26 69 -32 87 -13 39 -22 40 -66 3z"/>
<path d="M8962 6095 c-18 -39 -15 -55 11 -55 12 0 76 -7 142 -15 65 -8 121
-13 122 -11 2 2 -2 21 -9 42 l-13 39 -95 12 c-141 17 -145 17 -158 -12z"/>
<path d="M11092 5894 l-42 -64 -98 -1 -97 -1 90 -29 c50 -16 93 -29 97 -29 8
0 101 180 96 185 -2 2 -22 -26 -46 -61z"/>
<path d="M6562 5733 c-52 -25 -92 -46 -90 -48 10 -8 1020 -227 1024 -222 0 1
-2 26 -5 55 l-6 53 -195 79 -195 78 -210 26 c-115 15 -214 26 -220 25 -5 0
-52 -21 -103 -46z"/>
<path d="M8100 5489 c-12 -16 -21 -32 -19 -33 2 -2 29 -6 59 -9 47 -4 71 1
160 34 l105 38 -142 0 -142 1 -21 -31z"/>
<path d="M7781 5473 c-6 -20 -9 -39 -7 -41 5 -5 177 58 191 70 5 4 -32 8 -83
8 l-91 0 -10 -37z"/>
<path d="M8715 5488 l-80 -8 -87 -88 c-48 -48 -88 -90 -88 -95 0 -4 19 5 43
20 23 14 110 62 192 105 87 45 139 77 125 77 -14 -1 -61 -6 -105 -11z"/>
<path d="M10206 4983 l-49 -228 -91 -132 c-50 -73 -94 -132 -98 -133 -10 0
-349 266 -362 284 -5 8 21 58 77 146 93 147 93 148 15 149 -20 1 -114 28 -209
61 -95 33 -174 60 -176 60 -2 0 8 -22 22 -50 14 -27 25 -51 25 -52 0 -2 -35
-2 -78 0 l-78 3 -75 -96 -76 -96 14 -75 c8 -42 13 -78 10 -80 -2 -2 -37 10
-78 27 l-74 30 -37 -41 c-20 -22 -39 -37 -41 -33 -3 4 -8 43 -12 86 -7 70 -9
77 -29 77 -11 0 -43 3 -71 6 l-50 6 -49 -94 -50 -95 -85 -29 c-47 -16 -87 -35
-87 -42 -1 -6 -2 -47 -3 -89 l-2 -78 -31 73 c-17 39 -34 72 -37 72 -3 0 -55
-75 -115 -165 -60 -91 -109 -165 -110 -165 -1 0 -100 -23 -220 -50 -196 -45
-233 -57 -360 -116 -77 -36 -146 -70 -151 -74 -6 -5 -28 -62 -49 -127 l-38
-118 35 -97 34 -98 -54 0 c-29 0 -53 -2 -53 -4 0 -2 45 -130 99 -285 l100
-281 -40 -110 c-21 -61 -39 -114 -39 -119 0 -7 214 -71 238 -71 7 0 56 24 109
54 88 48 128 62 378 129 201 55 348 87 520 116 l240 40 100 -35 100 -35 45
-131 45 -130 110 113 c60 63 105 107 100 99 -5 -8 -36 -58 -70 -110 -83 -129
-82 -127 -64 -115 8 6 36 28 62 49 27 21 52 35 56 30 4 -5 16 -40 26 -78 14
-54 16 -88 11 -161 l-6 -92 62 -28 c132 -58 118 -55 173 -29 l49 24 37 -36 38
-37 48 21 c26 11 91 41 143 65 92 43 97 48 151 123 32 44 178 232 326 418
l270 339 42 176 42 176 -28 140 -28 140 -42 -3 -43 -4 0 125 0 124 -80 72 -79
72 6 208 6 208 -61 33 c-68 38 -66 34 -78 180 -5 68 -13 99 -40 153 -19 37
-35 67 -37 67 -1 0 -24 -102 -51 -227z"/>
<path d="M9171 5155 c12 -19 23 -35 25 -35 10 0 52 55 47 62 -2 5 -24 8 -48 8
l-44 0 20 -35z"/>
<path d="M1225 4951 l-7 -150 -79 -71 c-43 -39 -79 -77 -79 -84 0 -7 24 -98
54 -202 44 -156 55 -207 59 -295 l6 -106 77 -156 78 -155 74 -7 c40 -4 76 -4
80 -1 6 6 -32 252 -117 766 l-37 225 23 13 c16 9 22 19 19 30 -10 30 -134 334
-139 338 -2 3 -8 -63 -12 -145z"/>
<path d="M12302 4476 c-13 -44 -11 -54 7 -32 7 8 11 27 9 43 -4 27 -4 26 -16
-11z"/>
<path d="M11291 2627 c-18 -53 -37 -81 -115 -168 -70 -78 -95 -113 -100 -141
-4 -22 -23 -57 -46 -84 -60 -69 -48 -66 28 6 173 166 262 255 262 262 0 5 -13
8 -29 8 l-29 0 29 87 c16 47 27 88 25 90 -2 2 -14 -25 -25 -60z"/>
<path d="M10914 2212 c-23 -21 -154 -123 -292 -227 -138 -104 -250 -190 -249
-191 1 -1 35 4 76 11 71 13 77 16 125 67 28 30 72 65 99 78 39 21 47 30 47 52
0 25 4 28 33 28 46 0 164 104 194 171 13 27 19 49 15 49 -4 -1 -26 -18 -48
-38z"/>
<path d="M9556 2229 c-12 -40 -46 -182 -44 -184 2 -1 31 -5 64 -8 l62 -6 70
93 71 94 -32 5 c-18 3 -67 9 -109 13 -61 5 -79 3 -82 -7z"/>
<path d="M5680 609 c69 -33 139 -63 155 -67 29 -6 28 -6 -15 -14 -33 -6 -57
-4 -92 9 -51 18 -34 21 -245 -44 -80 -24 -93 -31 -93 -50 0 -13 -18 -36 -48
-62 l-49 -40 -84 20 c-76 18 -89 25 -134 70 -48 46 -54 49 -104 49 -163 0
-477 39 -606 76 -14 4 -9 -3 14 -23 l35 -30 -42 -23 c-23 -13 -42 -27 -42 -32
0 -4 18 -17 41 -28 23 -12 39 -23 37 -25 -2 -2 -45 9 -96 24 -94 30 -115 29
-62 -2 16 -10 35 -23 42 -30 15 -14 175 -57 209 -56 22 1 22 2 -6 15 -30 14
-30 14 15 8 55 -7 308 -70 364 -90 40 -15 162 -37 506 -89 127 -19 194 -34
244 -56 63 -27 88 -30 332 -50 l263 -21 124 21 c69 12 140 21 158 22 28 0 31
2 14 9 -17 7 -14 9 15 10 l35 2 -35 12 c-34 12 -33 13 59 26 51 7 87 16 79 20
-21 12 -156 28 -363 45 -322 26 -289 17 -331 87 l-37 61 25 21 c13 12 37 30
53 41 23 17 27 26 22 47 -6 23 -15 27 -72 38 -72 14 -95 30 -43 30 18 0 44 3
57 7 38 10 -174 91 -284 109 -149 23 -151 18 -15 -47z"/>
<path d="M6125 565 c-5 -2 -32 -7 -60 -10 l-50 -7 40 -15 c22 -7 45 -19 51
-26 6 -7 26 -54 45 -106 18 -51 38 -99 45 -106 22 -22 218 -38 309 -25 44 6
245 13 450 15 325 4 363 2 310 -9 -58 -13 -59 -13 -20 -15 l40 -3 -65 -23 -65
-24 150 6 c89 3 172 11 205 21 30 8 64 15 75 15 11 -1 87 -4 168 -8 l148 -7
-163 -54 c-90 -30 -188 -56 -218 -59 -66 -7 -472 -87 -466 -92 2 -2 50 3 107
11 57 8 136 18 174 22 39 4 75 10 80 14 6 4 51 13 100 19 142 18 256 41 279
56 11 8 41 17 65 21 48 8 84 35 75 57 -4 10 6 16 33 20 69 11 308 70 317 77 4
5 5 26 1 48 l-6 39 -77 12 c-154 24 -144 20 -137 51 7 33 17 30 -175 59 l-125
19 -140 -24 c-120 -20 -175 -23 -381 -24 l-241 0 -87 31 -86 30 -111 -27 -111
-27 -186 26 c-168 25 -268 32 -297 22z"/>
</g>
</svg>
