<svg xmlns="http://www.w3.org/2000/svg" viewBox="0 0 24 24" fill="none" stroke="currentColor" stroke-width="1.8" stroke-linecap="round" stroke-linejoin="round">
  <path d="M12 3a9 9 0 0 0-3 17c.5.1.7-.2.7-.5v-1.8c-2.8.6-3.4-1.2-3.4-1.2-.5-1.1-1.1-1.4-1.1-1.4-.9-.6.1-.6.1-.6 1 0 1.6 1.1 1.6 1.1.9 1.5 2.4 1.1 2.9.8.1-.7.4-1.1.7-1.4-2.2-.3-4.6-1.1-4.6-5A3.9 3.9 0 0 1 7 6.3c-.1-.3-.5-1.3.1-2.7 0 0 .9-.3 2.9 1.1A10 10 0 0 1 12 4.4c.7 0 1.4.1 2.1.3 2-1.4 2.9-1.1 2.9-1.1.6 1.4.2 2.4.1 2.7A3.9 3.9 0 0 1 18.1 9c0 3.9-2.4 4.7-4.6 5 .4.3.7.9.7 1.8v2.7c0 .3.2.6.7.5A9 9 0 0 0 12 3Z"/>
</svg>
